<?xml version="1.0" standalone="no"?><!DOCTYPE svg PUBLIC "-//W3C//DTD SVG 1.1//EN" "http://www.w3.org/Graphics/SVG/1.1/DTD/svg11.dtd"><svg t="1582446619425" class="icon" viewBox="0 0 1024 1024" version="1.1" xmlns="http://www.w3.org/2000/svg" p-id="8405" xmlns:xlink="http://www.w3.org/1999/xlink" width="200" height="200"><defs><style type="text/css"></style></defs><path d="M512 507.904m-489.984 0a489.984 489.984 0 1 0 979.968 0 489.984 489.984 0 1 0-979.968 0Z" fill="#eaeaea" p-id="8406" data-spm-anchor-id="a313x.7781069.0.i9" class="selected"></path><path d="M307.712 333.312c-15.872 108.032-23.04 232.96-25.6 339.456 68.096 39.936 146.432 63.488 230.4 66.56V137.216c-68.608 0-182.272 40.448-204.8 196.096zM512.512 739.328c5.632 0 11.264 0.512 16.384 0.512 76.8 0 149.504-17.92 214.528-49.152-2.56-110.08-9.216-242.688-26.112-356.864-23.04-155.648-136.704-196.096-204.8-196.608v602.112z" fill="#586ABA" p-id="8407"></path><path d="M317.44 424.96c-11.776 4.096-14.848 25.088-7.68 47.616 7.68 22.528 23.04 37.376 34.304 33.28 11.776-4.096 14.848-25.088 7.68-47.616S329.216 420.864 317.44 424.96zM713.216 425.984c11.776 4.096 14.848 25.088 7.68 47.104-7.68 22.016-23.04 36.864-34.304 32.768-11.776-4.096-14.848-25.088-7.68-47.104 7.68-22.016 23.04-36.864 34.304-32.768z" fill="#E3DCDB" p-id="8408"></path><path d="M415.232 766.464s30.72-10.752 30.72-98.816l109.568-49.152 27.648 45.568s2.048 86.528 67.072 103.936l-44.544 160.768-173.056-19.456-17.408-142.848z" fill="#F7EDEB" p-id="8409"></path><path d="M512 997.888c133.12 0 253.952-53.248 342.016-139.264-18.944-22.528-40.448-44.032-61.952-58.368-59.392-40.448-162.304-39.424-162.304-39.424s-35.328 57.856-107.52 57.856c-82.432 0-107.008-52.224-107.008-52.224s-74.752 12.8-103.424 26.112c-30.72 14.848-58.88 38.912-81.92 63.488-11.264 11.264-19.456 22.016-25.088 33.28 83.968 68.096 190.976 108.544 307.2 108.544z" fill="#586ABA" p-id="8410"></path><path d="M582.656 664.576l-13.824-22.528H502.784l-57.344 25.6c0 52.224-10.752 76.8-19.456 88.576l-0.512 2.048 161.792-61.952c-4.096-17.92-4.608-31.744-4.608-31.744z" fill="#E3DCDB" p-id="8411"></path><path d="M514.56 262.144s-0.512 0 0 0h-1.024C411.136 262.656 336.384 358.4 336.384 476.16c0 39.936 14.336 81.92 29.696 113.664 30.72 61.952 113.152 97.792 147.968 97.28 36.864-0.512 122.368-40.96 152.576-102.912 15.36-31.744 24.576-68.608 24.576-108.544 0.512-117.248-74.24-212.48-176.64-213.504z" fill="#F7EDEB" p-id="8412"></path><path d="M579.584 256S493.056 374.784 339.968 432.64c-33.792-59.392-25.088-104.448-25.088-126.976s46.592-168.448 195.072-168.448c28.672-1.024 81.408 83.456 69.632 118.784z" fill="#586ABA" p-id="8413"></path></svg>