<?xml version="1.0" standalone="no"?><!DOCTYPE svg PUBLIC "-//W3C//DTD SVG 1.1//EN" "http://www.w3.org/Graphics/SVG/1.1/DTD/svg11.dtd"><svg t="1582444495115" class="icon" viewBox="0 0 1024 1024" version="1.1" xmlns="http://www.w3.org/2000/svg" p-id="1195" xmlns:xlink="http://www.w3.org/1999/xlink" width="200" height="200"><defs><style type="text/css"></style></defs><path d="M0 512c0 282.624 228.864 512 512 512 282.624 0 512-228.864 512-512C1024 229.376 794.624 0 512 0S0 229.376 0 512z" fill="#EAEAEA" p-id="1196"></path><path d="M628.224 335.872c5.632 6.656 11.264 13.824 16.384 21.504-1.024-3.072-1.536-6.656-2.048-10.24-1.536-9.216-7.168-12.288-14.336-11.264z" fill="#E2C2A1" p-id="1197"></path><path d="M540.672 747.52l-20.48-11.776-57.344-68.608c-12.288-6.656-25.6-14.848-37.888-25.6v48.128l76.288 88.064 39.424-30.208z" fill="#FFE7CD" p-id="1198"></path><path d="M508.928 680.448c-12.288 0.512-28.16-4.608-46.08-13.312l57.344 68.608 20.48 11.776 54.272-40.448 4.096-25.088-0.512-46.592c-32.256 27.648-67.072 44.032-89.6 45.056z" fill="#D5B69A" p-id="1199"></path><path d="M755.2 752.64L599.04 693.76l-35.328 64.512 14.848 33.28-31.232-18.944-15.872 27.136-25.6 129.024h-13.824l-3.584-97.28-7.168-30.72-11.776-23.552-48.64-80.896-168.96 49.664-5.632 14.336s36.864 168.96 114.688 167.424 274.944 3.072 301.056 0c23.04-2.56 99.84-159.232 99.84-159.232l-6.656-15.872z m-90.112 144.896H593.92v-13.824h3.072v-6.144h66.56v6.144h1.536v13.824z" fill="#393B3A" p-id="1200"></path><path d="M635.392 774.144l-9.216-64-23.552-8.704-93.184 71.168-43.52-28.16-43.52-43.008-26.624 2.56-1.024 87.04 59.392 137.728 50.176 0.512 64.512 0.512 66.56-155.648z" fill="#FFFFFF" p-id="1201"></path><path d="M337.92 469.504c-1.536-4.608-2.048-9.728-3.584-14.848-0.512 0-1.536 0.512-1.536 0.512-8.704 4.096-25.6 9.728-18.432 47.616 7.68 37.888 15.872 40.448 15.872 40.448s11.776 2.56 17.408-8.704c-6.144-17.408-9.728-35.84-9.728-55.296-0.512-3.072-0.512-6.656 0-9.728z m330.24 71.68c4.608 2.048 9.216 1.536 9.216 1.536s9.216-1.536 19.456-38.4-6.656-43.52-15.36-48.128c-1.024-0.512-1.536-1.024-2.56-1.024 1.024 7.68 1.536 16.384 1.536 24.576 0 22.016-4.608 42.496-12.288 61.44z" fill="#F7D4B4" p-id="1202"></path><path d="M508.928 680.448c22.528-1.024 57.344-17.408 89.6-45.056 28.16-24.064 54.784-56.32 69.632-94.208 7.68-19.456 12.288-39.936 12.288-61.44 0-8.192-0.512-16.384-1.536-24.576 0 0 0 1.536 0 0-3.072 7.168-6.144 6.144-6.144 6.144l-10.24 38.912s0.512-9.728-1.024-14.336c-1.024-4.608-8.704-37.376-7.68-67.584 1.024-26.112-4.608-40.448-9.216-60.928-4.608-7.68-10.24-14.848-16.384-21.504-13.312 1.536-33.792 13.312-56.32 16.896-35.84 6.656-98.304 1.024-131.072-22.016-33.28-22.528-55.808 22.016-55.808 22.016-30.72 9.216-26.624 86.528-28.672 93.696-6.144 22.016-7.168 28.16-7.168 28.16l-2.048 32.256c-1.024-4.608-4.608-18.944-9.216-37.376 0 3.584-0.512 7.168-0.512 10.24 0 19.456 3.584 37.376 9.728 55.296 14.848 43.008 45.568 80.384 77.312 106.496 12.8 10.24 25.6 18.944 37.888 25.6 17.92 8.704 34.304 13.824 46.592 13.312z" fill="#FFE7CD" p-id="1203"></path><path d="M596.992 877.568h66.56v6.144h-66.56v-6.144z" fill="#F6F4F9" p-id="1204"></path><path d="M596.992 883.712h-3.584v13.824h71.68v-13.824h-68.096z" fill="#2B2D2C" p-id="1205"></path><path d="M512 777.728l-70.144 60.416s-38.912-78.336-38.912-89.6 7.68-37.376 7.68-37.376l101.376 66.56z m0 0l70.144 60.416s38.912-78.336 38.912-89.6-7.68-37.376-7.68-37.376l-101.376 66.56z" fill="#C0B4A9" p-id="1206"></path><path d="M415.232 701.44l-13.312 12.8s-4.096 16.896-1.536 52.736c2.56 36.352 52.224 156.672 52.224 156.672l2.048 4.608h-5.632s-77.824-127.488-79.36-185.344l15.36-7.68-15.36-1.536s7.68-13.312 16.384-22.528c11.264-12.8 29.184-13.312 29.184-13.312v3.584z" fill="#546BC5" p-id="1207"></path><path d="M356.352 541.184s-11.264-166.912 33.792-183.808c0 0 8.704-30.72 50.688-13.824 41.984 16.384 63.488 25.6 136.704 9.728 73.216-15.872 60.416 2.048 68.096 19.456s7.68 40.448 8.704 60.928c0.512 20.48 10.24 60.416 7.68 82.944 0 0 25.6-36.352 26.112-137.216 0-100.864 7.168-97.28 7.168-97.28s-45.056-33.792-46.08-65.536c-1.536-31.744-55.296-34.304-55.296-34.304s-38.4-23.04-33.28-40.448c0 0-208.384 12.288-200.192 136.704-0.512 0-90.624 24.576-4.096 262.656z" fill="#393A3D" p-id="1208"></path><path d="M425.984 672.768s-7.168 36.864 84.48 89.6l-67.072 52.736s-41.984-70.144-33.28-100.352c8.192-30.72 15.872-41.984 15.872-41.984z" fill="#FFFFFF" p-id="1209"></path><path d="M607.744 700.416l13.312 12.8s4.096 16.896 1.536 52.736c-2.56 36.352-52.224 156.672-52.224 156.672l-2.56 6.144h5.632s77.824-129.536 79.872-186.88l-15.36-7.68 15.36-1.536s-7.68-13.312-16.384-22.528c-11.264-12.8-29.184-13.312-29.184-13.312v3.584z" fill="#546BC5" p-id="1210"></path><path d="M597.504 672.768s7.68 36.864-85.504 89.6l68.608 52.736s42.496-70.144 34.304-100.352c-9.216-31.232-17.408-41.984-17.408-41.984z" fill="#FFFFFF" p-id="1211"></path><path d="M509.952 762.368l-30.208 22.016 16.384 27.648-20.992 117.248 68.096 0.512-21.504-117.76 18.432-27.648-28.16-22.016h-2.048z" fill="#1D2339" p-id="1212"></path></svg>