<?xml version="1.0" encoding="UTF-8"?>
<svg width="62px" height="63px" viewBox="0 0 62 63" version="1.1" xmlns="http://www.w3.org/2000/svg" xmlns:xlink="http://www.w3.org/1999/xlink">
    <!-- Generator: Sketch 59 (86127) - https://sketch.com -->
    <title>Fill 1</title>
    <desc>Created with Sketch.</desc>
    <g id="页面-1" stroke="none" stroke-width="1" fill="none" fill-rule="evenodd">
        <g id="画板" transform="translate(-2.000000, -2.000000)">
            <path d="M64,33.5 C64,50.8972831 50.1206732,65 33,65 C15.8788643,65 2,50.8972831 2,33.5 C2,16.1031869 15.8788643,2 33,2 C50.1206732,2 64,16.1031869 64,33.5" id="Fill-1" fill="#D1D1D1"></path>
            <path d="M31.9997665,38.8807615 C24.2683012,38.8807615 18,41.3702205 18,44.438733 C18,47.5067747 24.2683012,50 31.9997665,50 C39.7316988,50 46,47.510541 46,44.4420285 C46,41.3739867 39.7316988,38.8807615 31.9997665,38.8807615 M31.9997665,34.9300163 C36.6381786,34.9300163 40.3971979,31.1407471 40.3971979,26.4650082 C40.3971979,21.7892693 36.6381786,18 31.9997665,18 C27.3613543,18 23.6023351,21.7892693 23.6023351,26.4650082 C23.6023351,31.1407471 27.3613543,34.9300163 31.9997665,34.9300163" id="Fill-3" fill="#FFFFFF"></path>
        </g>
    </g>
</svg>