<?xml version="1.0" encoding="UTF-8"?>
<svg width="51px" height="21px" viewBox="0 0 51 21" version="1.1" xmlns="http://www.w3.org/2000/svg" xmlns:xlink="http://www.w3.org/1999/xlink">
    <!-- Generator: Sketch 59 (86127) - https://sketch.com -->
    <title>编组 9</title>
    <desc>Created with Sketch.</desc>
    <g id="-" stroke="none" stroke-width="1" fill="none" fill-rule="evenodd">
        <g id="首页" transform="translate(-119.000000, -42.000000)" fill="#F5A623">
            <g id="编组" transform="translate(119.000000, 42.000000)">
                <g id="编组-9" transform="translate(-0.000200, 0.000400)">
                    <path d="M20.134,9.3619 L18.189,19.7669 L15.086,19.7669 L17.032,9.3619 L20.134,9.3619 Z M11.985,0.1119 L24.787,0.0839 L24.787,2.8759 L18.498,5.5539 L21.178,5.5539 L24.533,5.5539 L24.787,5.5539 L24.787,17.3369 C24.787,17.7689 24.702,18.1749 24.533,18.5509 C24.364,18.9269 24.139,19.2579 23.857,19.5399 C23.574,19.8229 23.245,20.0439 22.869,20.2039 C22.493,20.3639 22.099,20.4439 21.685,20.4439 L19.006,20.4439 L19.768,18.0189 L20.303,18.0189 C20.547,18.0189 20.754,17.9339 20.924,17.7649 C21.093,17.5949 21.178,17.3799 21.178,17.1159 L21.178,8.3459 L11.985,8.3459 L11.985,5.5829 L18.244,2.8759 L11.985,2.8759 L11.985,0.1119 Z M12.859,9.3619 L15.96,9.3619 L14.127,19.7669 L11.026,19.7669 L12.859,9.3619 Z M7.754,10.7429 L6.908,10.7429 L6.908,15.7069 C7.153,15.6879 7.355,15.5929 7.515,15.4239 C7.674,15.2559 7.754,15.0489 7.754,14.8039 L7.754,10.7429 Z M6.908,7.9519 L7.754,7.9519 L7.754,4.3139 L6.908,4.3139 L6.908,7.9519 Z M3.271,15.7069 L4.145,15.7069 L4.145,10.7429 L3.271,10.7429 L3.271,15.7069 Z M3.271,7.9519 L4.145,7.9519 L4.145,4.3139 L3.271,4.3139 L3.271,7.9519 Z M6.908,1.5219 L11.026,1.5219 L11.026,7.9519 L11.026,10.7429 L11.026,15.3959 C11.026,15.8289 10.942,16.2329 10.774,16.6089 C10.606,16.9849 10.381,17.3139 10.102,17.5949 C9.821,17.8779 9.494,18.0989 9.121,18.2579 C8.747,18.4189 8.356,18.4979 7.945,18.4979 L6.908,18.4979 L6.908,20.4719 L4.145,20.4719 L4.145,18.4979 L1.31450406e-13,18.4979 L1.31450406e-13,1.5219 L4.145,1.5219 L4.145,0.0549 L6.908,0.0279 L6.908,1.5219 Z" id="Fill-1"></path>
                    <path d="M36.7717,18.442 L50.7867,17.737 L50.7867,19.682 L36.7717,20.387 L36.7717,18.442 Z M36.7717,15.904 L50.7867,15.199 L50.7867,17.116 L36.7717,17.849 L36.7717,15.904 Z M50.7867,14.494 L36.7717,15.227 L36.7717,13.281 L50.7867,12.576 L50.7867,14.494 Z M50.7867,3.355 C50.5607,4.558 50.1807,5.606 49.6447,6.5 C49.1087,7.392 48.4467,8.159 47.6567,8.797 C48.2017,8.929 48.7327,9.033 49.2507,9.108 C49.7667,9.183 50.2797,9.24 50.7867,9.277 L50.7867,12.041 C48.3797,11.89 46.1807,11.448 44.1877,10.715 C43.0597,11.129 41.8717,11.429 40.6217,11.618 C39.3707,11.805 38.0967,11.947 36.7997,12.041 L36.7997,9.08 C37.3637,9.042 37.9567,8.981 38.5767,8.896 C39.1967,8.811 39.8177,8.704 40.4377,8.572 C39.7227,7.97 39.0877,7.298 38.5347,6.555 C37.9797,5.813 37.5237,4.981 37.1667,4.06 L40.4657,4.06 C40.9737,4.812 41.5277,5.461 42.1287,6.005 C42.7307,6.551 43.3607,7.021 44.0187,7.416 C44.9207,6.983 45.7017,6.438 46.3597,5.78 C47.0177,5.123 47.4777,4.314 47.7417,3.355 L36.4057,3.355 L37.8997,-1.77635684e-15 L41.6227,-1.77635684e-15 L41.2267,0.874 L50.7867,0.874 L50.7867,3.355 Z M32.7957,17.511 L35.9547,17.511 L35.9547,5.074 L32.7957,5.074 L32.7957,17.511 Z M28.5937,8.121 L25.8867,8.121 L29.4397,0.14 L33.0777,0.14 L30.8777,5.075 L31.7517,5.075 L31.7517,20.529 L28.5937,20.529 L28.5937,8.121 Z" id="Fill-3"></path>
                </g>
            </g>
        </g>
    </g>
</svg>