<?xml version="1.0" encoding="UTF-8"?>
<svg width="48px" height="48px" viewBox="0 0 48 48" version="1.1" xmlns="http://www.w3.org/2000/svg" xmlns:xlink="http://www.w3.org/1999/xlink">
    <!-- Generator: Sketch 59 (86127) - https://sketch.com -->
    <title>提示</title>
    <desc>Created with Sketch.</desc>
    <g id="-" stroke="none" stroke-width="1" fill="none" fill-rule="evenodd">
        <g id="设备管理-设备档案-设备详情-服务信息弹窗" transform="translate(-1044.000000, -369.000000)" fill-rule="nonzero">
            <g id="提示-2" transform="translate(1040.000000, 365.000000)">
                <g id="提示">
                    <rect id="矩形" fill="#000000" opacity="0" x="0" y="0" width="56" height="56"></rect>
                    <path d="M49.3252931,16.9783337 C49.0358459,16.4154568 48.4515913,16.0241233 47.7762144,16.0241233 C46.8221106,16.0241233 46.0502513,16.7960688 46.0502513,17.7449185 C46.0502513,18.0665624 46.1413735,18.3721242 46.2968174,18.6294394 L46.2914573,18.6348001 C47.7333333,21.443824 48.5480737,24.6280992 48.5480737,28 C48.5480737,39.3433103 39.3500838,48.5423275 28.0080402,48.5423275 C16.6659966,48.5423275 7.46264657,39.3433103 7.46264657,28 C7.46264657,16.6566897 16.6606365,7.46303328 28.0026801,7.46303328 C31.3527638,7.46303328 34.5152429,8.26714318 37.3078727,9.68773732 L37.318593,9.66629439 C37.5651591,9.80567344 37.8546064,9.88608443 38.160134,9.88608443 C39.1142379,9.88608443 39.8860972,9.11413893 39.8860972,8.16528926 C39.8860972,7.46303328 39.4626466,6.85727049 38.8515913,6.58923386 C35.5926298,4.93276748 31.9102178,4 28.0026801,4 C14.7470687,4 4,14.7482689 4,28 C4,41.2517311 14.7470687,52 28.0026801,52 C41.2582915,52 52,41.2570918 52,28 C52,24.0276971 51.0351759,20.280545 49.3252931,16.9783337 Z" id="路径" fill="#EA684E"></path>
                    <path d="M42,12 C42,12.7145312 42.3811978,13.3747852 43,13.7320508 C43.6188021,14.0893164 44.3811979,14.0893164 45,13.7320508 C45.6188022,13.3747852 46,12.7145312 46,12 C46,11.2854688 45.6188022,10.6252148 45,10.2679492 C44.3811979,9.9106836 43.6188021,9.9106836 43,10.2679492 C42.3811978,10.6252148 42,11.2854688 42,12 L42,12 Z" id="路径" fill="#EA684E"></path>
                    <path d="M27,38 C27,39.1045695 27.8954305,40 29,40 C30.1045695,40 31,39.1045695 31,38 C31,37.2854689 30.6188022,36.6252148 30,36.2679492 C29.3811979,35.9106836 28.6188021,35.9106836 28,36.2679492 C27.3811978,36.6252148 27,37.2854689 27,38 Z" id="路径" fill="#EA684E"></path>
                    <path d="M29,34 C30.1034483,34 31,33.1887324 31,32.2028169 L31,17.7971831 C31,16.8112676 30.1034483,16 29,16 C27.9028213,16 27,16.8056338 27,17.7971831 L27,32.2028169 C27,33.1887324 27.8965517,34 29,34 L29,34 Z" id="路径" fill="#EA684E"></path>
                </g>
            </g>
        </g>
    </g>
</svg>