<?xml version="1.0" encoding="UTF-8"?>
<svg width="12px" height="19px" viewBox="0 0 12 19" version="1.1" xmlns="http://www.w3.org/2000/svg" xmlns:xlink="http://www.w3.org/1999/xlink">
    <!-- Generator: Sketch 59 (86127) - https://sketch.com -->
    <title>上箭头</title>
    <desc>Created with Sketch.</desc>
    <g id="-" stroke="none" stroke-width="1" fill="none" fill-rule="evenodd">
        <g id="工单详情-处理过程" transform="translate(-309.000000, -138.000000)" fill="#FF9F00">
            <g id="上箭头" transform="translate(309.000000, 138.000000)">
                <g transform="translate(6.000000, 9.500000) rotate(180.000000) translate(-6.000000, -9.500000) " id="Shape">
                    <path d="M1.79242062,11 C1.5828435,10.9990892 1.38201732,10.89904 1.23350943,10.7215569 C1.08409451,10.5444078 1,10.3028323 1,10.0507623 C1,9.79869234 1.08409451,9.55711688 1.23350943,9.37996769 L9.66990482,-0.74523423 C9.98153446,-1.09374226 10.4671545,-1.08345888 10.7683465,-0.721973875 C11.0695386,-0.360488873 11.0781068,0.22234304 10.7877272,0.59635503 L2.35133182,10.7215569 C2.20282393,10.89904 2.00199775,10.9990892 1.79242062,11 L1.79242062,11 Z" transform="translate(6.000000, 5.000000) rotate(-270.000000) translate(-6.000000, -5.000000) "></path>
                    <path d="M10.2075794,20 C9.99800225,19.9990892 9.79717607,19.89904 9.64866818,19.7215569 L1.21227278,9.59635503 C0.921893236,9.22234304 0.930461427,8.63951113 1.23165349,8.27802612 C1.53284554,7.91654112 2.01846554,7.90625774 2.33009518,8.25476577 L10.7664906,18.3799677 C10.9159055,18.5571169 11,18.7986923 11,19.0507623 C11,19.3028323 10.9159055,19.5444078 10.7664906,19.7215569 C10.6179827,19.89904 10.4171565,19.9990892 10.2075794,20 L10.2075794,20 Z" transform="translate(6.000000, 14.000000) rotate(-270.000000) translate(-6.000000, -14.000000) "></path>
                </g>
            </g>
        </g>
    </g>
</svg>