<?xml version="1.0" encoding="UTF-8"?>
<svg width="56px" height="69px" viewBox="0 0 56 69" version="1.1" xmlns="http://www.w3.org/2000/svg" xmlns:xlink="http://www.w3.org/1999/xlink">
    <!-- Generator: Sketch 59 (86127) - https://sketch.com -->
    <title>编组</title>
    <desc>Created with Sketch.</desc>
    <defs>
        <polygon id="path-1" points="0 0.8503 55.4021576 0.8503 55.4021576 69 0 69"></polygon>
        <polygon id="path-3" points="0.64634909 0.0773 1.47 0.0773 1.47 9.8113 0.64634909 9.8113"></polygon>
        <polygon id="path-5" points="0.3002 0.5764 30.4002 0.5764 30.4002 53 0.3002 53"></polygon>
    </defs>
    <g id="-" stroke="none" stroke-width="1" fill="none" fill-rule="evenodd">
        <g id="首页" transform="translate(-40.000000, -20.000000)">
            <g id="成品占比备份" transform="translate(40.000000, 19.000000)">
                <g id="编组">
                    <g id="logo" transform="translate(0.000000, 0.023300)">
                        <g id="编组">
                            <path d="M32.6575,17.4462 C32.6575,21.3942 29.4565,24.5942 25.5095,24.5942 C21.5605,24.5942 18.3595,21.3942 18.3595,17.4462 C18.3595,13.4982 21.5605,10.2982 25.5095,10.2982 C29.4565,10.2982 32.6575,13.4982 32.6575,17.4462" id="Fill-1" fill="#F5A623"></path>
                            <g transform="translate(0.000000, 0.150100)">
                                <mask id="mask-2" fill="white">
                                    <use xlink:href="#path-1"></use>
                                </mask>
                                <g id="Clip-4"></g>
                                <path d="M36.1048,51.2883 C35.7408,45.2873 32.2738,40.1313 27.1608,36.9453 C29.7498,38.0263 32.5828,38.5493 35.5248,38.3703 C46.2568,37.7183 54.4478,28.0463 54.1708,16.5763 C54.8348,18.9583 55.2448,21.4763 55.3998,24.0773 C55.4128,22.4133 55.3678,21.4643 55.3678,21.4643 C55.1638,20.3413 54.9088,19.5753 54.8878,19.4493 C53.5448,11.6863 49.0728,5.0223 42.8428,0.8503 C43.2598,2.9363 43.4818,5.1253 43.4818,7.3813 C43.4818,21.7383 34.5068,33.3773 23.4368,33.3773 C13.2008,33.3773 4.7568,23.4263 3.5418,10.5763 C1.2878,14.6483 -0.0002,19.3493 -0.0002,24.3553 C-0.0002,32.1163 3.0918,39.1423 8.0888,44.2303 C8.2198,44.3633 8.3418,44.5043 8.4558,44.6523 C8.4578,44.6553 8.4588,44.6573 8.4608,44.6603 C8.6938,44.9623 8.9738,45.2253 9.2818,45.4493 C23.7658,55.9833 22.7638,58.0843 23.9788,63.8443 C24.3748,65.7183 25.1288,67.3363 25.3008,69.0003 C32.1298,65.4513 36.5568,58.7233 36.1048,51.2883" id="Fill-3" fill="#37D39F" mask="url(#mask-2)"></path>
                            </g>
                            <g transform="translate(54.000000, 24.150100)">
                                <mask id="mask-4" fill="white">
                                    <use xlink:href="#path-3"></use>
                                </mask>
                                <g id="Clip-6"></g>
                                <path d="M1.3997,0.0773 C1.3837,2.2623 1.2687,5.6803 0.8227,9.8113 C1.3997,6.4973 1.5877,3.2243 1.3997,0.0773" id="Fill-5" fill="#5EC894" mask="url(#mask-4)"></path>
                            </g>
                            <g transform="translate(25.000000, 16.150100)">
                                <mask id="mask-6" fill="white">
                                    <use xlink:href="#path-5"></use>
                                </mask>
                                <g id="Clip-8"></g>
                                <path d="M29.1712,0.5764 C29.4472,12.0464 21.2572,21.7184 10.5252,22.3704 C7.5822,22.5494 4.7492,22.0264 2.1602,20.9454 C7.2742,24.1314 10.7402,29.2874 11.1052,35.2884 C11.5572,42.7224 7.1302,49.4514 0.3012,53.0004 C0.4222,52.9014 0.3042,53.0014 0.3002,52.9964 C9.2552,49.8514 17.9232,44.1064 23.7692,34.1274 C26.8712,28.8294 28.8722,23.2644 29.8222,17.8114 C30.2692,13.6804 30.3842,10.2624 30.4002,8.0774 C30.2442,5.4754 29.8352,2.9584 29.1712,0.5764" id="Fill-7" fill="#0FC18A" mask="url(#mask-6)"></path>
                            </g>
                        </g>
                    </g>
                </g>
            </g>
        </g>
    </g>
</svg>