<?xml version="1.0" encoding="UTF-8"?>
<svg width="19px" height="23px" viewBox="0 0 19 23" version="1.1" xmlns="http://www.w3.org/2000/svg" xmlns:xlink="http://www.w3.org/1999/xlink">
    <!-- Generator: Sketch 59 (86127) - https://sketch.com -->
    <title>提醒</title>
    <desc>Created with Sketch.</desc>
    <g id="页面-1" stroke="none" stroke-width="1" fill="none" fill-rule="evenodd">
        <g id="备件管理-库存调拨-待修备件返还" transform="translate(-1524.000000, -42.000000)" fill-rule="nonzero">
            <g id="提醒-2" transform="translate(1519.000000, 38.000000)">
                <g id="提醒">
                    <rect id="矩形" fill="#000000" opacity="0" x="0" y="0" width="30" height="30"></rect>
                    <path d="M18.1,25 C18.64,25 19,25.4 19,26 C19,26.5 18.64,26.9 18.19,27 L10.9,27 C10.36,27 10,26.6 10,26 C10,25.5 10.36,25.1 10.81,25 L18.1,25 Z" id="路径" fill="#BEBEBE"></path>
                    <path d="M14.5,4 C14.975,4 15.355,4.37810945 15.45,4.85074627 L15.45,5.98507463 C19.155,6.45771144 22.005,9.48258706 22.1,13.2636816 L22.1,21.1094527 L23.05,21.1094527 C23.62,21.1094527 24,21.4875622 24,22.0547264 C24,22.5273632 23.62,22.9054726 23.145,23 L23.05,22.9054726 L5.95,22.9054726 C5.38,22.9054726 5,22.5273632 5,21.960199 C5,21.4875622 5.38,21.1094527 5.855,21.0149254 L6.9,21.0149254 L6.9,13.4527363 C6.9,9.57711443 9.845,6.45771144 13.55,5.98507463 L13.55,4.94527363 C13.55,4.37810945 13.93,4 14.5,4 Z M14.5,7.78109453 C11.46,7.78109453 8.895,10.238806 8.8,13.2636816 L8.8,21.0149254 L20.2,21.0149254 L20.2,13.4527363 C20.2,10.4278607 17.92,7.97014925 14.88,7.78109453 L14.5,7.78109453 Z" id="形状" fill="#BEBEBE"></path>
                </g>
            </g>
        </g>
    </g>
</svg>
