<svg id="图层_1" data-name="图层 1" xmlns="http://www.w3.org/2000/svg" viewBox="0 0 147.59 147.59"><defs><style>.cls-1{fill:#9b9b9b;}</style></defs><title>表情</title><path class="cls-1" d="M81,8.2A73.8,73.8,0,1,0,154.8,82,73.8,73.8,0,0,0,81,8.2Zm0,138.37A64.57,64.57,0,1,1,145.57,82,64.65,64.65,0,0,1,81,146.57Z" transform="translate(-7.2 -8.2)"/><path class="cls-1" d="M44.1,66.62a9.23,9.23,0,1,0,9.23-9.22A9.23,9.23,0,0,0,44.1,66.62Z" transform="translate(-7.2 -8.2)"/><path class="cls-1" d="M99.45,66.62a9.23,9.23,0,1,0,9.22-9.22A9.22,9.22,0,0,0,99.45,66.62Z" transform="translate(-7.2 -8.2)"/><path class="cls-1" d="M81,125.05a30.74,30.74,0,0,0,30.74-30.74H50.26A30.74,30.74,0,0,0,81,125.05Z" transform="translate(-7.2 -8.2)"/></svg>