<svg id="图层_1" data-name="图层 1" xmlns="http://www.w3.org/2000/svg" viewBox="0 0 175.06 175.06"><defs><style>.cls-1{fill:#53ad53;}</style></defs><title>excel</title><path class="cls-1" d="M168.14,12.47H33.86A20.39,20.39,0,0,0,13.47,32.86V167.14a20.39,20.39,0,0,0,20.39,20.39H168.14a20.39,20.39,0,0,0,20.39-20.39V32.86A20.39,20.39,0,0,0,168.14,12.47ZM131,142.92H118.55L104.61,117.8q-2.06-3.69-4.74-9.49a98.29,98.29,0,0,1-7.73,9.08l-24,25.53H53L94,99.53,69.66,57.08H82.3L93.37,76.52q4.39,7.67,5,9c1,1.91,2.12,4.2,3.33,6.85a177.45,177.45,0,0,1,13.41-15.4L134,57.08h15l-41.52,44.33Z" transform="translate(-13.47 -12.47)"/></svg>