<svg id="图层_1" data-name="图层 1" xmlns="http://www.w3.org/2000/svg" viewBox="0 0 156.67 135"><defs><style>.cls-1{fill:#9b9b9b;}</style></defs><title>文件</title><path class="cls-1" d="M103.75,34.6h50.83a20,20,0,0,1,20,20v73.33a20,20,0,0,1-20,20H37.92a20,20,0,0,1-20-20V26.26A13.33,13.33,0,0,1,31.25,12.93H83a13.32,13.32,0,0,1,11.35,6.34ZM154.5,137.86a10,10,0,0,0,10-10V54.52a10,10,0,0,0-10-10H28v83.34a10,10,0,0,0,10,10ZM87.21,24.61a3.33,3.33,0,0,0-2.89-1.68H31.25a3.33,3.33,0,0,0-3.33,3.33v8.13l65,.21Z" transform="translate(-17.92 -12.93)"/></svg>