<svg id="图层_1" data-name="图层 1" xmlns="http://www.w3.org/2000/svg" viewBox="0 0 145.63 145.64"><defs><style>.cls-1{fill:#9b9b9b;}</style></defs><title>刷新</title><path class="cls-1" d="M73.22,1C108.89,1,140.07,27.48,146,62.23a5.33,5.33,0,0,1-6.54,6.06L111,61.18a5.33,5.33,0,0,1,2.59-10.33l19.88,5c-8-25.16-31.94-43.64-59-44.18H73.22A62.18,62.18,0,0,0,11.78,64.31,5.33,5.33,0,0,1,1.25,62.7h0A72.84,72.84,0,0,1,73.22,1Zm0,145.64C37.56,146.6,6.38,120.08.49,85.33a5.33,5.33,0,0,1,4.37-6.14,5.27,5.27,0,0,1,2.75.26L36,90.11a5.32,5.32,0,0,1-3.74,10L13.4,93l.36,1c8.69,24,32,41.37,58.24,41.9h1.23a62.18,62.18,0,0,0,61.3-51.8A5.33,5.33,0,1,1,145,85.9h0a72.84,72.84,0,0,1-71.81,60.7Z" transform="translate(-0.41 -0.96)"/></svg>