<?xml version="1.0" encoding="utf-8"?>
<!-- Generator: Adobe Illustrator 22.0.0, SVG Export Plug-In . SVG Version: 6.00 Build 0)  -->
<svg version="1.1" id="图层_1" xmlns="http://www.w3.org/2000/svg" xmlns:xlink="http://www.w3.org/1999/xlink" x="0px" y="0px"
	 viewBox="0 0 178.5 176.8" style="enable-background:new 0 0 178.5 176.8;" xml:space="preserve">
<style type="text/css">
	.st0{fill:#C4C4C4;}
	.st1{fill:#FFFFFF;stroke:#FFFFFF;stroke-width:2;stroke-miterlimit:10;}
</style>
<title>未知</title>
<path class="st0" d="M156.1,0.5H21.8C10.5,0.5,1.4,9.6,1.4,20.9v134.3c0,11.3,9.1,20.4,20.4,20.4l134.3,0c11.3,0,20.4-9.1,20.4-20.4
	V20.9C176.5,9.6,167.3,0.5,156.1,0.5z"/>
<g>
	<path class="st1" d="M99.6,64.9c0-6.8-4.2-12.2-12.2-12.2c-5.6,0-10.6,2.7-14.5,7.2l-5.9-5.4c5.2-6,12.4-10.4,21.5-10.4
		c12.7,0,21.1,7.8,21.1,20.1c0,16.6-20.3,23.2-18.3,40.9h-9.1C79.7,85.5,99.6,78.3,99.6,64.9z M79.7,123.8c0-4.6,3.4-8,7.4-8
		c4.2,0,7.6,3.4,7.6,8c0,4.6-3.4,7.8-7.6,7.8C83.1,131.5,79.7,128.4,79.7,123.8z"/>
</g>
</svg>
