<svg id="图层_1" data-name="图层 1" xmlns="http://www.w3.org/2000/svg" viewBox="0 0 175.06 175.06"><defs><style>.cls-1{fill:#5087e5;}.cls-2{fill:#fff;}</style></defs><title>word</title><rect class="cls-1" width="175.06" height="175.06" rx="20.4" ry="20.4"/><path class="cls-2" d="M52.27,57.05H63.52l4.3,46.76c.73,9.26,1.58,18.51,2.32,27.77h.48c2.95-9.26,6-18.51,9-27.77L96.1,57.05h9.84l7.88,46.76c1.31,9.14,2.51,18.4,3.71,27.77h.6q3.74-14.06,7.42-27.77l13.09-46.76h10.43L123.83,143H110.54l-8.47-51.8c-.9-6.79-1.62-13-2.42-19.57h-.47C97.15,78.14,95,84.36,93,91.15L75,143H61.83Z" transform="translate(-13.14 -12.47)"/></svg>