<?xml version="1.0" encoding="UTF-8"?>
<svg width="66px" height="67px" viewBox="0 0 66 67" version="1.1" xmlns="http://www.w3.org/2000/svg" xmlns:xlink="http://www.w3.org/1999/xlink">
    <!-- Generator: Sketch 59 (86127) - https://sketch.com -->
    <title>文字识别</title>
    <desc>Created with Sketch.</desc>
    <g id="页面-1" stroke="none" stroke-width="1" fill="none" fill-rule="evenodd">
        <g id="画板" transform="translate(-6.000000, -4.000000)" fill-rule="nonzero">
            <g id="文字识别" transform="translate(2.000000, 0.000000)">
                <g>
                    <rect id="矩形" fill="#000000" opacity="0" x="0" y="0" width="79" height="79"></rect>
                    <path d="M52.7391394,4.9375 L69.4967152,4.9375 L69.4967152,7.33143939 L52.7391394,7.33143939 L52.7391394,4.9375 Z M5.16525136,21.7964883 L5.16525136,5.03891254 L7.55919076,5.03891254 L7.55919076,21.7964883 L5.16525136,21.7964883 Z M69.5251262,53.8920473 L69.5251262,70.6496231 L67.1311868,70.6496231 L67.1311868,53.8920473 L69.5251262,53.8920473 Z M21.5454545,70.6780341 L4.78787879,70.6780341 L4.78787879,68.2840947 L21.5454545,68.2840947 L21.5454545,70.6780341 Z M67.0633361,21.7518977 L67.0633361,4.99432193 L69.4572755,4.99432193 L69.4572755,21.7518977 L67.0633361,21.7518977 Z M21.979649,7.47229165 L5.22207329,7.47229165 L5.22207329,5.07835225 L21.979649,5.07835225 L21.979649,7.47229165 Z M52.7107285,68.216244 L69.4683042,68.216244 L69.4683042,70.6101834 L52.7107285,70.6101834 L52.7107285,68.216244 Z M7.2212579,53.8636364 L7.2212579,70.6212121 L4.8273185,70.6212121 L4.8273185,53.8636364 L7.2212579,53.8636364 Z" id="形状" fill="#FF9F00"></path>
                </g>
                <path d="M50.3556299,36.3240223 L38.270903,36.3240223 L38.270903,23.9888268 L50.3556299,23.9888268 L50.3556299,36.3240223 Z M54.6365663,20.0111732 L34.1683389,20.0111732 L34.1683389,40.2569832 L54.6365663,40.2569832 L54.6365663,20.0111732 Z M28.8617614,24.5698324 C27.3455964,22.7374302 24.1794872,19.9217877 21.8160535,18 L19.0958751,20.5027933 L20.7743859,22.0027281 C22.7877424,23.8459204 24.8880218,25.9354438 25.9632107,27.4301676 L28.8617614,24.5698324 Z M26.8104794,48.2569832 L26.8104794,30.7821229 L17,30.7821229 L17,34.7597765 L22.7971014,34.7597765 L22.7971014,49.0167598 C22.7971014,51.5642458 21.1917503,53.4413408 20.1661093,54.2905028 C20.9241918,54.8268156 22.2619844,56.2122905 22.7525084,57.0167598 L23.0466601,56.6479652 C23.8821048,55.6881341 25.7562988,54.1385475 32.7413601,48.4357542 C32.2508361,47.6759777 31.4481605,45.9776536 31.1360089,44.8603352 L26.8104794,48.2569832 Z M37.1560758,44.2793296 C35.8182832,48.6145251 33.5440357,52.9050279 30.6454849,55.5865922 C31.671126,56.1675978 33.4548495,57.3296089 34.3021182,58 C37.245262,54.9162011 39.8316611,50.1340782 41.3924192,45.2178771 L37.1560758,44.2793296 Z M47.1003344,45.5307263 L50.9799331,44.1005587 C53.3879599,47.8994413 55.974359,52.9050279 57,56.122905 L52.8528428,57.7318436 C51.916388,54.5139665 49.4637681,49.4189944 47.1003344,45.5307263 Z" id="识" fill="#FF9F00"></path>
            </g>
        </g>
    </g>
</svg>
