<?xml version="1.0" encoding="UTF-8"?>
<svg width="23px" height="20px" viewBox="0 0 23 20" version="1.1" xmlns="http://www.w3.org/2000/svg" xmlns:xlink="http://www.w3.org/1999/xlink">
    <!-- Generator: Sketch 59 (86127) - https://sketch.com -->
    <title>筛选</title>
    <desc>Created with Sketch.</desc>
    <g id="-" stroke="none" stroke-width="1" fill="none" fill-rule="evenodd">
        <g id="备件管理-备件出库" transform="translate(-1852.000000, -145.000000)">
            <rect id="Rectangle-7" fill="#F7F7F7" x="260" y="0" width="1660" height="1080"></rect>
            <rect id="矩形" fill="#FFFFFF" x="245" y="110" width="1690" height="988"></rect>
            <g id="筛选" transform="translate(1851.000000, 143.000000)" fill-rule="nonzero">
                <rect id="矩形" fill="#000000" opacity="0" x="0" y="0" width="25" height="25"></rect>
                <path d="M19.8115663,20.1946204 C18.9528871,20.9658577 17.7983275,21.4381351 16.5286686,21.4381351 C13.8765716,21.4381351 11.7266305,19.3775254 11.7266305,16.8356246 C11.7266305,14.2937238 13.8765716,12.2331142 16.5286686,12.2331142 C19.1807656,12.2331142 21.3307067,14.2937238 21.3307067,16.8356246 C21.3307067,17.4013867 21.2241887,17.9432875 21.0293632,18.443945 L23.5192885,20.0659892 C24.0206462,20.3925882 24.1508127,21.0468858 23.810055,21.5274118 C23.4692974,22.0079378 22.7866347,22.1326958 22.285277,21.8060968 L19.8115663,20.1946204 L19.8115663,20.1946204 Z M2.0976087,4.10400478 C1.49142935,4.10400478 1,3.63299462 1,3.05200239 C1,2.47101016 1.49142935,2 2.0976087,2 L22.9022828,2 C23.5084621,2 23.9998915,2.47101016 23.9998915,3.05200239 C23.9998915,3.63299462 23.5084621,4.10400478 22.9022828,4.10400478 L2.0976087,4.10400478 Z M2.0976087,16.0227137 C1.49142935,16.0227137 1,15.5517035 1,14.9707113 C1,14.3897191 1.49142935,13.9187089 2.0976087,13.9187089 L8.35896744,13.9187089 C8.96514679,13.9187089 9.45657614,14.3897191 9.45657614,14.9707113 C9.45657614,15.5517035 8.96514679,16.0227137 8.35896744,16.0227137 L2.0976087,16.0227137 Z M2.0976087,10.0693365 C1.49142935,10.0693365 1,9.59832636 1,9.01733413 C1,8.4363419 1.49142935,7.96533174 2.0976087,7.96533174 L22.9022828,7.96533174 C23.5084621,7.96533174 23.9998915,8.4363419 23.9998915,9.01733413 C23.9998915,9.59832636 23.5084621,10.0693365 22.9022828,10.0693365 L2.0976087,10.0693365 Z M2.0976087,22 C1.49142935,22 1,21.5289898 1,20.9479976 C1,20.3670054 1.49142935,19.8959952 2.0976087,19.8959952 L8.35896744,19.8959952 C8.96514679,19.8959952 9.45657614,20.3670054 9.45657614,20.9479976 C9.45657614,21.5289898 8.96514679,22 8.35896744,22 L2.0976087,22 Z M16.5286686,19.3341303 C17.968382,19.3341303 19.1354893,18.215517 19.1354893,16.8356246 C19.1354893,15.4557322 17.968382,14.3371189 16.5286686,14.3371189 C15.0889552,14.3371189 13.9218479,15.4557322 13.9218479,16.8356246 C13.9218479,18.215517 15.0889552,19.3341303 16.5286686,19.3341303 Z" id="形状" fill="#FF9F00"></path>
            </g>
        </g>
    </g>
</svg>