<svg id="图层_1" data-name="图层 1" xmlns="http://www.w3.org/2000/svg" viewBox="0 0 65.94 66"><defs><style>.cls-not_work-attention{fill:none;stroke:#ff9f00;stroke-miterlimit:10;stroke-width:6px;}</style></defs><title>未关注</title><path class="cls-not_work-attention" d="M50.2,65a5.31,5.31,0,0,1-2.53-.67L35.48,57.68a.91.91,0,0,0-.93,0L22.37,64.37a5.34,5.34,0,0,1-2.53.67,5.25,5.25,0,0,1-4.06-1.93,5.58,5.58,0,0,1-1.24-4.56l2.34-14.19a1.41,1.41,0,0,0-.34-1.13l-9.88-10a5.63,5.63,0,0,1-1.3-5.73,5.45,5.45,0,0,1,4.32-3.72l13.59-2.1a1.19,1.19,0,0,0,.8-.63L30.19,8.17a5.34,5.34,0,0,1,9.72,0L46,21.05a1.19,1.19,0,0,0,.8.63l13.62,2.07a5.4,5.4,0,0,1,4.29,3.69,5.63,5.63,0,0,1-1.3,5.73L53.56,43.23a1.3,1.3,0,0,0-.33,1.13l2.33,14.18a5.44,5.44,0,0,1-4.34,6.34,5.77,5.77,0,0,1-1,.09Z" transform="translate(-2.06 -2.04)"/></svg>
