<svg id="图层_1" data-name="图层 1" xmlns="http://www.w3.org/2000/svg" viewBox="0 0 59.94 60"><defs><style>.cls-work-attention{fill:#ff9f00;}</style></defs><title>已关注</title><path class="cls-work-attention" d="M45.13,59.93a5.31,5.31,0,0,1-2.53-.67L30.41,52.61a.91.91,0,0,0-.93,0L17.3,59.3a5.34,5.34,0,0,1-2.53.67A5.25,5.25,0,0,1,10.71,58a5.58,5.58,0,0,1-1.24-4.56l2.34-14.19a1.41,1.41,0,0,0-.34-1.13l-9.88-10a5.63,5.63,0,0,1-1.3-5.73,5.45,5.45,0,0,1,4.32-3.72l13.59-2.1A1.19,1.19,0,0,0,19,16L25.12,3.1a5.34,5.34,0,0,1,9.72,0L40.93,16a1.19,1.19,0,0,0,.8.63l13.62,2.07a5.4,5.4,0,0,1,4.29,3.69,5.63,5.63,0,0,1-1.3,5.73L48.49,38.16a1.3,1.3,0,0,0-.33,1.13l2.33,14.18a5.44,5.44,0,0,1-4.34,6.34,5.77,5.77,0,0,1-1,.09Z" transform="translate(0.01 0.03)"/></svg>
