<?xml version="1.0" encoding="UTF-8"?>
<svg width="23px" height="23px" viewBox="0 0 23 23" version="1.1" xmlns="http://www.w3.org/2000/svg" xmlns:xlink="http://www.w3.org/1999/xlink">
    <!-- Generator: Sketch 59 (86127) - https://sketch.com -->
    <title>形状</title>
    <desc>Created with Sketch.</desc>
    <g id="-" stroke="none" stroke-width="1" fill="none" fill-rule="evenodd">
        <g id="备件管理-备件出库" transform="translate(-1774.000000, -144.000000)" fill="#FF9F00" fill-rule="nonzero" stroke="#FF9F00">
            <g id="形状-2" transform="translate(1774.000000, 144.000000)">
                <path d="M15.9210514,10.9473596 L12.0526164,10.9473596 L12.0526164,7.07894864 C12.0526164,6.77389728 11.8050274,6.52630823 11.499976,6.52630823 C11.1949246,6.52630823 10.9473356,6.77389726 10.9473356,7.07894864 L10.9473356,10.9473596 L7.07894864,10.9473596 C6.77389728,10.9473596 6.52630823,11.1949486 6.52630823,11.5 C6.52630823,11.8050514 6.77389726,12.0526404 7.07894864,12.0526404 L10.9473596,12.0526404 L10.9473596,15.9210514 C10.9473596,16.2261027 11.1949486,16.4736918 11.5,16.4736918 C11.8050514,16.4736918 12.0526404,16.2261028 12.0526404,15.9210514 L12.0526404,12.0526164 L15.9210514,12.0526164 C16.2261027,12.0526164 16.4736918,11.8050274 16.4736918,11.499976 C16.4736918,11.1949246 16.2261027,10.9473596 15.9210514,10.9473596 Z M11.5,1 C5.70105137,1 1,5.70105137 1,11.5 C1,17.2989486 5.70105137,22 11.5,22 C17.2989486,22 22,17.2989486 22,11.5 C22,5.70105137 17.2989486,1 11.5,1 Z M11.5,20.8947432 C6.31153768,20.8947432 2.10525684,16.6884863 2.10525684,11.5 C2.10525684,6.31151369 6.31151369,2.10525684 11.5,2.10525684 C16.6884863,2.10525684 20.8947432,6.31151369 20.8947432,11.5 C20.8947432,16.6884863 16.6884623,20.8947432 11.5,20.8947432 Z" id="形状"></path>
            </g>
        </g>
    </g>
</svg>