<?xml version="1.0" encoding="UTF-8"?>
<svg width="16px" height="16px" viewBox="0 0 16 16" version="1.1" xmlns="http://www.w3.org/2000/svg" xmlns:xlink="http://www.w3.org/1999/xlink">
    <!-- Generator: Sketch 59 (86127) - https://sketch.com -->
    <title>形状 2</title>
    <desc>Created with Sketch.</desc>
    <g id="-" stroke="none" stroke-width="1" fill="none" fill-rule="evenodd">
        <g id="备件管理-备件入库-批量入库" transform="translate(-1801.000000, -692.000000)" fill-rule="nonzero">
            <g id="删除" transform="translate(1801.000000, 692.000000)">
                <rect id="矩形" fill="#000000" opacity="0" x="0" y="0" width="16" height="16"></rect>
                <g id="形状-2" transform="translate(0.007000, 0.303000)" fill="#FF9F00">
                    <path d="M7.7915,1 C11.5365,1 14.583,4.0465 14.583,7.791 C14.583,11.5355 11.536,14.5825 7.7915,14.5825 C4.047,14.5825 1,11.5355 1,7.791 C1,4.0465 4.047,1 7.7915,1 M7.7915,15.5825 C12.0875,15.5825 15.583,12.087 15.583,7.791 C15.583,3.495 12.088,2.18491891e-13 7.7915,2.18491891e-13 C3.4955,2.18491891e-13 2.69118061e-13,3.495 2.69118061e-13,7.791 C2.69118061e-13,12.087 3.4955,15.5825 7.7915,15.5825 M4.348,10.705 L4.3475,10.705 C4.22111729,10.8312934 4.17171158,11.0154177 4.21789351,11.188015 C4.26407543,11.3606123 4.39882887,11.4954611 4.57139351,11.541765 C4.74395814,11.5880689 4.9281173,11.5387934 5.0545,11.4125 L7.9685,8.4975 L10.883,11.4125 C11.0782327,11.6077327 11.3947673,11.6077327 11.59,11.4125 C11.7852327,11.2172673 11.7852327,10.9007327 11.59,10.7055 L11.5895,10.705 L8.676,7.791 L11.5895,4.8775 L11.59,4.877 C11.7162934,4.75070661 11.7656166,4.56662999 11.71939,4.39411002 C11.6731634,4.22159004 11.53841,4.0868366 11.36589,4.04061001 C11.19337,3.99438343 11.0092934,4.04370661 10.883,4.17 L7.9685,7.084 L5.0545,4.17 C4.92820661,4.04379593 4.74417764,3.99455527 4.57173502,4.04082652 C4.39929239,4.08709777 4.26463425,4.22185121 4.21848501,4.39432652 C4.17233578,4.56680184 4.22170661,4.75079593 4.348,4.877 L7.2615,7.7905 L4.348,10.7045 L4.348,10.705 Z" id="形状"></path>
                </g>
            </g>
        </g>
    </g>
</svg>